<?xml version="1.0" encoding="UTF-8"?>
<svg width="100pt" height="100pt" version="1.1" viewBox="0 0 100 100" xmlns="http://www.w3.org/2000/svg">
 <path d="m67.516 55.996-10.332-4.1328v-1.3594h1.3867c0.55859 0 1.0078-0.44922 1.0078-1.0078 0-6.8594-0.23438-14.398-0.62891-20.172-0.74219-10.887-1.7461-11.891-2.1758-12.32-1.8086-1.8086-4.2148-2.8047-6.7734-2.8047s-4.9648 0.99609-6.7734 2.8047c-0.42969 0.42969-1.4336 1.4297-2.1758 12.32-0.39453 5.7695-0.62891 13.309-0.62891 20.172 0 0.55859 0.45312 1.0078 1.0078 1.0078h1.3867v1.3594l-10.332 4.1328c-0.38281 0.15234-0.63281 0.52344-0.63281 0.9375 0 3.2188 1.3867 19.617 5.3164 23.551 3.4297 3.4297 7.9844 5.3164 12.836 5.3164 4.8477 0 9.4062-1.8906 12.836-5.3164 3.9297-3.9336 5.3164-20.332 5.3164-23.551-0.003906-0.41406-0.25781-0.78516-0.64062-0.9375zm-16.852 8.75h-1.3281l0.66406-6.6406zm-0.34766-8.5703h-0.63281v-2.5234h0.63281zm-5.6641-37.746c1.4297-1.4297 3.3281-2.2148 5.3477-2.2148s3.9219 0.78516 5.3359 2.2031c1.1602 1.4297 2.1797 15.344 2.2227 30.066l-15.121 0.003906c0.046875-14.723 1.0664-28.637 2.2148-30.059zm11.02 32.074v1.1367l-11.344-0.003906v-1.1367zm5.7383 28.551c-3.0508 3.0469-7.1016 4.7266-11.41 4.7266s-8.3594-1.6797-11.406-4.7266c-2.7734-2.7734-4.5742-15.824-4.7188-21.445l9.8906-3.957h4.4062v3.2773c0 0.26953 0.14844 0.49609 0.36328 0.62891l-0.78906 7.8672c-0.019532 0.21094 0.046875 0.42578 0.19141 0.58203 0.14453 0.16016 0.34766 0.25 0.55859 0.25h3c0.21484 0 0.41797-0.089843 0.5625-0.25 0.14453-0.16016 0.21094-0.37109 0.19141-0.58203l-0.78516-7.8672c0.21094-0.13281 0.36328-0.35938 0.36328-0.62891v-3.2773h4.4062l9.8906 3.957c-0.14453 5.6211-1.9414 18.672-4.7148 21.445z"/>
 <path d="m39.395 78.254c5.8594 5.8555 15.355 5.8555 21.211 0 1.5781-1.5781 2.7305-6.1328 3.457-10.605h-28.121c0.72656 4.4727 1.875 9.0273 3.4531 10.605z"/>
</svg>
